<?xml version="1.0" encoding="UTF-8"?>
<svg id="Camada_1" xmlns="http://www.w3.org/2000/svg" version="1.1" viewBox="0 0 1024 1024">
  <!-- Generator: Adobe Illustrator 29.5.1, SVG Export Plug-In . SVG Version: 2.1.0 Build 141)  -->
  <path d="M498.4,199.15c248.67-12.02,402.24,271.15,254.97,473.39-127.58,175.2-393.36,159.59-500.39-28.23-110.35-193.64,24.75-434.49,245.43-445.16ZM499.86,205.72c-243.97,10.93-368.25,299.56-206.23,484.13,146.26,166.62,418.88,113.65,493.29-94.06,69.9-195.13-80.7-399.31-287.06-390.06Z"/>
  <path d="M408.16,308.81c36.4,1.61,73.98,13.81,103.61,34.45-.37,51.07.98,102.34.39,153.55-1.92.47-1.93-.71-2.81-1.68-26.84-29.5-61.59-43.68-101.18-47.32v-139Z"/>
  <path d="M397.16,323.81l-1.01,138.01c42.18-.56,85.9,13.35,115.51,43.98,30.35-30.61,72.69-44.25,115.5-43.98v-138h13v153c-45.86-2.03-93.45,9.25-128.37,39.93-34.73-31.13-82.73-41.94-128.63-39.93v-153h14Z"/>
  <path d="M482.66,561.81h38c28.68,0,46.02,30.7,34,56-4.92,10.36-20.61,20-32,20h-40l-1.5-1.5v-73l1.5-1.5ZM501.66,576.81l-1.5,1.5v43l1.5,1.5h17c.85,0,7.22-1.96,8.5-2.5,13.56-5.75,16.16-28.02,5.51-37.52-2.2-1.96-12.33-5.99-15.01-5.99h-16Z"/>
  <path d="M420.94,561.09c62.14-7.49,63.44,84.11.84,77.6-47.54-4.95-47.38-71.99-.84-77.6ZM421.9,577.05c-23.7,4.03-22.4,45.56,4.92,46.39,30.92.94,30.47-52.4-4.92-46.39Z"/>
  <polygon points="629.16 561.81 629.16 576.81 590.16 576.81 590.16 591.81 625.16 591.81 625.16 606.81 590.16 606.81 590.16 622.81 631.16 622.81 631.16 637.81 571.16 637.81 571.16 561.81 629.16 561.81"/>
  <path d="M658.66,561.81l16.01,23.01,17.99-23.01h19.5l-25.86,36.33,26.86,39.67h-20.5c-6.13-7.34-10.46-16.18-16.22-23.74-.49-.64.14-1.72-1.77-1.27l-16.51,25.01h-21l26.86-38.67-25.86-37.33h20.5Z"/>
  <path d="M381.1,575.75l-10.57,9.99c-4.5-2.81-7.17-6.56-12.54-8.24-20.01-6.26-35.03,12.24-28.3,31.29,6.07,17.17,29.35,18.85,39.98,5.04l11.43,10.62c-7.17,11.73-23.38,15.57-36.3,14.24-52.27-5.36-46.72-84.74,12.77-77.77,8.32.98,20.27,6.87,23.54,14.83Z"/>
  <path d="M616.16,316.81c-25.59,1.01-52.34,5.51-76.52,13.98-9.31,3.26-18,8.24-27.48,11.01,25.28-30.25,62.98-48.04,101.96-52.57l2.04,1.08v26.5Z"/>
  <path d="M594.15,348.85c-22.87-8.83-48.76.59-60.51,21.94-24.57,44.67,22.99,92.16,67.53,68.53,3.01-1.6,11.75-9.16,12.68-9.41,1.78-.47,4.52,1.52,4.22,3.25-.33,1.93-12.75,10.55-15.23,11.83-30.79,15.81-69.55.04-79.19-33.18-11.24-38.75,19.58-76.43,59.9-71.9,3.51.39,11.36,3.9,13.12,3.86,1.92-.05,5.02-3.65,8.99-4.01,16.3-1.45,21.52,22.02,7.05,27.09-12.53,4.39-22.73-5.77-18.56-18ZM603.87,346.02c-10.01,2.97-4.18,21.71,7.21,15.19,8.64-4.95,3.64-18.41-7.21-15.19Z"/>
  <path d="M574.82,359.16c13.7-.37,14.91,19.5,3.8,21.6-18.39,3.46-18.85-21.19-3.8-21.6Z"/>
  <path d="M546.87,385.02c17.68-4.07,18.96,23.34,1.92,21.74-12.43-1.17-12.63-19.27-1.92-21.74Z"/>
  <path d="M597.9,385.04c17.51-3.55,18.45,23.27,1.89,21.72-12.17-1.14-13.07-19.45-1.89-21.72Z"/>
  <path d="M571.87,410.02c16.49-3.8,19.46,19.89,4.53,21.6-13.4,1.53-16.48-18.84-4.53-21.6Z"/>
  <path d="M449.16,539.81c-4.87,3.96-11.33,12.14-16.45,15.05-2.71,1.53-8.79,1.19-12.06.96-1.49-.11-2.89.78-2.48-1.49l11.49-14.51h19.5Z"/>
</svg>